<svg width="500" height="357" viewBox="0 0 500 357" fill="none" xmlns="http://www.w3.org/2000/svg">
<path d="M9.81169 346.306C16.3118 352.933 25.0001 356.617 34.3124 356.617L465.679 356.621C474.93 356.621 483.679 352.933 490.179 346.311C496.679 339.684 500.18 330.873 499.993 321.561L496.431 149.064C495.742 115.377 467.745 87.9373 434.058 87.9373H419.432C418.996 81.0012 413.307 75.4988 406.245 75.4988H381.932C374.869 75.4988 369.119 81.0007 368.683 87.9373H360.06V31.2495C360.06 13.9987 346.061 0 328.81 0H171.19C153.939 0 139.94 13.9987 139.94 31.2495V87.9373H131.317C130.881 81.0012 125.131 75.4988 118.068 75.4988H93.7551C86.7536 75.4988 81.003 81.0007 80.5678 87.9373H65.9419C32.2549 87.9373 4.25419 115.377 3.56893 149.064L0.00715749 321.561C-0.180306 330.873 3.32051 339.683 9.82063 346.311L9.81169 346.306ZM118.871 344.118H92.9968V256.743H118.871V344.118ZM406.992 344.118H381.117V256.743H406.992V344.118ZM419.491 100.438H434.052C460.99 100.438 483.364 122.376 483.926 149.314L487.488 321.811C487.614 327.749 485.365 333.312 481.236 337.562C477.112 341.813 471.549 344.123 465.673 344.123H419.487V256.748H422.238C429.113 256.748 434.737 251.125 434.737 244.25V187.937C434.737 181.062 429.113 175.438 422.238 175.438H419.487V100.501L419.491 100.438ZM381.117 88.75C381.117 88.3751 381.492 88.0001 381.928 88.0001H406.242C406.677 88.0001 406.991 88.314 406.991 88.75V175.375H381.117L381.117 88.75ZM422.242 187.873V244.186H365.929V187.873H422.242ZM319.992 52.563V12.5023H328.803C339.113 12.5023 347.554 20.9381 347.554 31.2531V87.875H319.993L319.992 52.563ZM192.494 12.5023H307.492V40.0632H192.494V12.5023ZM192.494 52.563H307.492V87.9364H192.494V52.563ZM152.433 31.2486C152.433 20.9382 160.869 12.4978 171.184 12.4978H179.995V87.8705H152.434L152.433 31.2486ZM131.372 100.435H368.612V175.373H365.927C359.051 175.373 353.428 180.996 353.428 187.871V244.184C353.428 251.059 359.052 256.683 365.927 256.683H368.612V344.057H131.361V256.683H134.047C140.922 256.683 146.545 251.059 146.545 244.184V187.871C146.545 180.996 140.921 175.373 134.047 175.373H131.361V100.435H131.372ZM92.999 88.7466C92.999 88.3107 93.3129 87.9968 93.7489 87.9968H118.062C118.498 87.9968 118.873 88.3717 118.873 88.7466V175.371H92.9984L92.999 88.7466ZM134.062 187.87V244.183H77.7493V187.87H134.062ZM16.0616 149.309C16.624 122.371 38.9976 100.434 65.9358 100.434H80.497V175.371H77.7462C70.871 175.371 65.2475 180.995 65.2475 187.87V244.183C65.2475 251.058 70.8714 256.682 77.7462 256.682H80.497V344.056H34.3113C28.4346 344.056 22.8762 341.746 18.7479 337.495C14.6238 333.245 12.3743 327.682 12.4963 321.744L16.058 149.247L16.0616 149.309Z" fill="white"/>
<path d="M158.504 144.803H168.252V152.24C161.438 154.804 156.563 161.304 156.563 168.99V178.428C156.563 188.364 164.624 196.429 174.564 196.429C184.5 196.429 192.499 188.368 192.499 178.428V168.99C192.499 161.304 187.625 154.738 180.75 152.18V144.742H341.496C344.931 144.742 347.747 141.93 347.747 138.491C347.747 135.055 344.935 132.239 341.496 132.239H158.44C155.005 132.239 152.189 135.051 152.189 138.491C152.189 141.926 155.001 144.742 158.44 144.742L158.504 144.803ZM169.067 169.051C169.067 166.052 171.504 163.549 174.569 163.549C177.629 163.549 180.005 165.986 180.005 169.051V178.49C180.005 181.489 177.568 183.991 174.569 183.991C171.569 183.991 169.132 181.554 169.132 178.49V169.051H169.067Z" fill="white"/>
</svg>
