<svg width="37" height="37" viewBox="0 0 37 37" fill="none" xmlns="http://www.w3.org/2000/svg">
<path d="M11.5967 15.3789C11.1131 14.8513 10.2777 14.8073 9.75002 15.291C9.22238 15.7746 9.17841 16.6101 9.66208 17.1377L16.3015 24.3488C16.5653 24.6126 16.8731 24.7885 17.2249 24.7885C17.2249 24.7885 17.2249 24.7885 17.2689 24.7885C17.6206 24.7885 17.9724 24.6565 18.1922 24.3927L34.9887 7.64021C35.5163 7.11258 35.5163 6.27715 34.9887 5.79348C34.4611 5.30981 33.6256 5.26584 33.142 5.79348L17.3128 21.5787L11.5967 15.3789Z" fill="#49CA56" stroke="#49CA56"/>
<path d="M34.6809 17.1809C33.9334 17.1809 33.3618 17.7525 33.3618 18.5C33.3618 26.6784 26.6784 33.3618 18.5 33.3618C10.3216 33.3618 3.63819 26.6784 3.63819 18.5C3.63819 10.3216 10.3216 3.63819 18.5 3.63819C19.2475 3.63819 19.8191 3.06658 19.8191 2.3191C19.8191 1.57161 19.2475 1 18.5 1C8.8706 1 1 8.8706 1 18.5C1 28.1294 8.8706 36 18.5 36C28.1294 36 36 28.1294 36 18.5C36 17.7525 35.4284 17.1809 34.6809 17.1809Z" fill="#49CA56" stroke="#49CA56"/>
</svg>
